<svg width="36" height="36" viewBox="0 0 36 36" fill="none" xmlns="http://www.w3.org/2000/svg">
<g clip-path="url(#clip0_106_1134)">
<path d="M19.41 18.0002L27.7 9.71019C27.8638 9.51888 27.9494 9.27281 27.9397 9.02113C27.93 8.76946 27.8256 8.53072 27.6475 8.35262C27.4694 8.17453 27.2307 8.0702 26.979 8.06047C26.7274 8.05075 26.4813 8.13636 26.29 8.30019L18 16.5902L9.70997 8.29019C9.52167 8.10188 9.26627 7.99609 8.99997 7.99609C8.73367 7.99609 8.47828 8.10188 8.28997 8.29019C8.10167 8.47849 7.99588 8.73388 7.99588 9.00019C7.99588 9.26649 8.10167 9.52188 8.28997 9.71019L16.59 18.0002L8.28997 26.2902C8.18529 26.3798 8.10027 26.4902 8.04025 26.6142C7.98022 26.7383 7.94649 26.8734 7.94117 27.0111C7.93586 27.1488 7.95906 27.2862 8.00934 27.4145C8.05961 27.5428 8.13587 27.6594 8.23332 27.7568C8.33078 27.8543 8.44732 27.9305 8.57565 27.9808C8.70398 28.0311 8.84131 28.0543 8.97903 28.049C9.11675 28.0437 9.25188 28.0099 9.37594 27.9499C9.50001 27.8899 9.61033 27.8049 9.69997 27.7002L18 19.4102L26.29 27.7002C26.4813 27.864 26.7274 27.9496 26.979 27.9399C27.2307 27.9302 27.4694 27.8258 27.6475 27.6477C27.8256 27.4697 27.93 27.2309 27.9397 26.9792C27.9494 26.7276 27.8638 26.4815 27.7 26.2902L19.41 18.0002Z" fill="black"/>
</g>
<defs>
<clipPath id="clip0_106_1134">
<rect width="36" height="36" fill="white"/>
</clipPath>
</defs>
</svg>
